<svg width="152" height="31" viewBox="0 0 152 31" fill="none" xmlns="http://www.w3.org/2000/svg">
<path d="M57.692 24.1046C56.189 24.4523 54.6282 24.6261 53.0096 24.6261C46.5351 24.6261 43.2979 21.4682 43.2979 15.1523C43.2979 9.29995 46.5351 6.37378 53.0096 6.37378C54.6282 6.37378 56.189 6.54761 57.692 6.89528V10.5457C56.189 10.1981 54.7438 10.0242 53.3564 10.0242C49.7145 10.0242 47.8936 11.7336 47.8936 15.1523C47.8936 19.0345 49.7145 20.9756 53.3564 20.9756C54.7438 20.9756 56.189 20.8018 57.692 20.4542V24.1046Z" fill="white"/>
<path d="M59.8598 18.9418C59.8598 15.3145 62.4958 13.5009 67.7679 13.5009C69.005 13.5009 70.2421 13.6168 71.4792 13.8485V12.4753C71.4792 10.8413 70.3057 10.0242 67.9587 10.0242C65.9701 10.0242 63.7618 10.314 61.3339 10.8934V7.24294C63.7618 6.6635 65.9701 6.37378 67.9587 6.37378C73.3695 6.37378 76.0749 8.37864 76.0749 12.3884V24.6261H73.4042L71.774 22.9921C70.1901 24.0814 68.4443 24.6261 66.5366 24.6261C62.0854 24.6261 59.8598 22.7313 59.8598 18.9418ZM71.4792 16.9775C70.323 16.7457 69.0859 16.6299 67.7679 16.6299C65.5597 16.6299 64.4555 17.3831 64.4555 18.8897C64.4555 20.5121 65.3805 21.3233 67.2303 21.3233C68.7564 21.3233 70.1727 20.8482 71.4792 19.8979V16.9775Z" fill="white"/>
<path d="M80.4278 23.757V19.9327C82.4511 20.7439 84.7866 21.1495 87.4342 21.1495C89.4112 21.1495 90.3997 20.5121 90.3997 19.2373C90.3997 18.0205 89.7349 17.4121 88.4053 17.4121H85.1103C81.4106 17.4121 79.5607 15.5869 79.5607 11.9364C79.5607 8.1121 82.2604 6.19995 87.6596 6.19995C89.9488 6.19995 92.105 6.54761 94.1283 7.24294V11.0672C92.105 10.256 89.9083 9.85042 87.5382 9.85042C85.0525 9.85042 83.8096 10.4878 83.8096 11.7626C83.8096 12.9794 84.5322 13.5878 85.9774 13.5878H88.9256C92.9721 13.5878 94.9954 15.413 94.9954 19.0635C94.9954 22.8878 92.4172 24.7999 87.2607 24.7999C84.7287 24.7999 82.4511 24.4523 80.4278 23.757Z" fill="white"/>
<path d="M97.354 18.9418C97.354 15.3145 99.99 13.5009 105.262 13.5009C106.499 13.5009 107.736 13.6168 108.973 13.8485V12.4753C108.973 10.8413 107.8 10.0242 105.453 10.0242C103.464 10.0242 101.256 10.314 98.8281 10.8934V7.24294C101.256 6.6635 103.464 6.37378 105.453 6.37378C110.864 6.37378 113.569 8.37864 113.569 12.3884V24.6261H110.898L109.268 22.9921C107.684 24.0814 105.938 24.6261 104.031 24.6261C99.5796 24.6261 97.354 22.7313 97.354 18.9418ZM108.973 16.9775C107.817 16.7457 106.58 16.6299 105.262 16.6299C103.054 16.6299 101.95 17.3831 101.95 18.8897C101.95 20.5121 102.875 21.3233 104.724 21.3233C106.251 21.3233 107.667 20.8482 108.973 19.8979V16.9775Z" fill="white"/>
<path d="M115.754 6.37378H120.61L125.032 19.133L129.628 6.37378H134.484L127.079 24.6261H122.709L115.754 6.37378Z" fill="white"/>
<path d="M135.785 18.9418C135.785 15.3145 138.421 13.5009 143.693 13.5009C144.93 13.5009 146.167 13.6168 147.404 13.8485V12.4753C147.404 10.8413 146.231 10.0242 143.884 10.0242C141.895 10.0242 139.687 10.314 137.259 10.8934V7.24294C139.687 6.6635 141.895 6.37378 143.884 6.37378C149.294 6.37378 152 8.37864 152 12.3884V24.6261H149.329L147.699 22.9921C146.115 24.0814 144.369 24.6261 142.461 24.6261C138.01 24.6261 135.785 22.7313 135.785 18.9418ZM147.404 16.9775C146.248 16.7457 145.011 16.6299 143.693 16.6299C141.485 16.6299 140.38 17.3831 140.38 18.8897C140.38 20.5121 141.305 21.3233 143.155 21.3233C144.681 21.3233 146.098 20.8482 147.404 19.8979V16.9775Z" fill="white"/>
<path d="M30.927 4.87634C30.927 19.2443 19.199 30.9999 4.86475 30.9999C4.86475 16.5013 16.5928 4.87634 30.927 4.87634Z" fill="white"/>
<path d="M9.95875 4.98459C9.95875 3.2146 9.02511 1.54874 7.46906 0.663744C5.913 -0.221248 4.04574 -0.221248 2.48969 0.663744C0.933634 1.54874 0 3.2146 0 4.98459C0 7.74368 2.23035 9.98219 4.97938 9.98219C7.72841 9.98219 9.95875 7.74368 9.95875 4.98459Z" fill="white"/>
</svg>
