<svg width="81" height="17" viewBox="0 0 81 17" fill="none" xmlns="http://www.w3.org/2000/svg">
<path d="M30.7438 13.2187C29.9429 13.4094 29.1111 13.5047 28.2486 13.5047C24.7984 13.5047 23.0732 11.7729 23.0732 8.30937C23.0732 5.10002 24.7984 3.49535 28.2486 3.49535C29.1111 3.49535 29.9429 3.59068 30.7438 3.78133V5.7832C29.9429 5.59255 29.1727 5.49722 28.4334 5.49722C26.4927 5.49722 25.5223 6.4346 25.5223 8.30937C25.5223 10.4383 26.4927 11.5028 28.4334 11.5028C29.1727 11.5028 29.9429 11.4075 30.7438 11.2168V13.2187Z" fill="#333333"/>
<path d="M31.899 10.3875C31.899 8.39834 33.3038 7.40376 36.1132 7.40376C36.7725 7.40376 37.4317 7.46731 38.0909 7.59442V6.84133C38.0909 5.94526 37.4656 5.49722 36.2149 5.49722C35.1552 5.49722 33.9784 5.6561 32.6846 5.97386V3.97199C33.9784 3.65423 35.1552 3.49535 36.2149 3.49535C39.0983 3.49535 40.54 4.59479 40.54 6.79367V13.5047H39.1168L38.248 12.6086C37.404 13.206 36.4736 13.5047 35.4571 13.5047C33.085 13.5047 31.899 12.4656 31.899 10.3875ZM38.0909 9.3103C37.4748 9.1832 36.8156 9.11965 36.1132 9.11965C34.9364 9.11965 34.3481 9.53273 34.3481 10.3589C34.3481 11.2486 34.8409 11.6935 35.8267 11.6935C36.64 11.6935 37.3947 11.4329 38.0909 10.9118V9.3103Z" fill="#333333"/>
<path d="M42.8596 13.0281V10.9309C43.9378 11.3757 45.1824 11.5982 46.5932 11.5982C47.6468 11.5982 48.1736 11.2486 48.1736 10.5496C48.1736 9.88227 47.8193 9.54862 47.1108 9.54862H45.3549C43.3833 9.54862 42.3975 8.54769 42.3975 6.54582C42.3975 4.44862 43.8362 3.40002 46.7134 3.40002C47.9333 3.40002 49.0823 3.59068 50.1605 3.97199V6.06918C49.0823 5.62432 47.9117 5.40189 46.6487 5.40189C45.3241 5.40189 44.6617 5.75143 44.6617 6.45049C44.6617 7.11778 45.0468 7.45143 45.8169 7.45143H47.388C49.5444 7.45143 50.6226 8.45236 50.6226 10.4542C50.6226 12.5514 49.2487 13.6 46.5008 13.6C45.1515 13.6 43.9378 13.4094 42.8596 13.0281Z" fill="#333333"/>
<path d="M51.8795 10.3875C51.8795 8.39834 53.2842 7.40376 56.0937 7.40376C56.7529 7.40376 57.4121 7.46731 58.0714 7.59442V6.84133C58.0714 5.94526 57.446 5.49722 56.1953 5.49722C55.1356 5.49722 53.9588 5.6561 52.665 5.97386V3.97199C53.9588 3.65423 55.1356 3.49535 56.1953 3.49535C59.0787 3.49535 60.5204 4.59479 60.5204 6.79367V13.5047H59.0972L58.2285 12.6086C57.3844 13.206 56.4541 13.5047 55.4375 13.5047C53.0655 13.5047 51.8795 12.4656 51.8795 10.3875ZM58.0714 9.3103C57.4553 9.1832 56.796 9.11965 56.0937 9.11965C54.9169 9.11965 54.3285 9.53273 54.3285 10.3589C54.3285 11.2486 54.8214 11.6935 55.8072 11.6935C56.6204 11.6935 57.3752 11.4329 58.0714 10.9118V9.3103Z" fill="#333333"/>
<path d="M61.6849 3.49535H64.2725L66.6291 10.4924L69.0782 3.49535H71.6658L67.7197 13.5047H65.3908L61.6849 3.49535Z" fill="#333333"/>
<path d="M72.359 10.3875C72.359 8.39834 73.7637 7.40376 76.5732 7.40376C77.2324 7.40376 77.8916 7.46731 78.5509 7.59442V6.84133C78.5509 5.94526 77.9255 5.49722 76.6748 5.49722C75.6151 5.49722 74.4383 5.6561 73.1445 5.97386V3.97199C74.4383 3.65423 75.6151 3.49535 76.6748 3.49535C79.5582 3.49535 80.9999 4.59479 80.9999 6.79367V13.5047H79.5767L78.708 12.6086C77.8639 13.206 76.9336 13.5047 75.917 13.5047C73.545 13.5047 72.359 12.4656 72.359 10.3875ZM78.5509 9.3103C77.9348 9.1832 77.2755 9.11965 76.5732 9.11965C75.3964 9.11965 74.808 9.53273 74.808 10.3589C74.808 11.2486 75.3009 11.6935 76.2867 11.6935C77.0999 11.6935 77.8547 11.4329 78.5509 10.9118V9.3103Z" fill="#333333"/>
<path d="M16.4807 2.67407C16.4807 10.5533 10.2309 16.9999 2.59229 16.9999C2.59229 9.04907 8.84208 2.67407 16.4807 2.67407Z" fill="#FB0E7D"/>
<path d="M5.30696 2.73348C5.30696 1.76285 4.80943 0.849307 3.98022 0.363989C3.15101 -0.12133 2.15596 -0.12133 1.32674 0.363989C0.497529 0.849307 0 1.76285 0 2.73348C0 4.24653 1.18854 5.4741 2.65348 5.4741C4.11843 5.4741 5.30696 4.24653 5.30696 2.73348Z" fill="#FB0E7D"/>
</svg>
