<svg width="99" height="20" viewBox="0 0 99 20" fill="none" xmlns="http://www.w3.org/2000/svg">
<path d="M37.3084 15.5514C36.3364 15.7757 35.3271 15.8878 34.2804 15.8878C30.0935 15.8878 28 13.8504 28 9.77565C28 5.99995 30.0935 4.1121 34.2804 4.1121C35.3271 4.1121 36.3364 4.22425 37.3084 4.44855V6.80369C36.3364 6.57939 35.4019 6.46724 34.5047 6.46724C32.1495 6.46724 30.972 7.57005 30.972 9.77565C30.972 12.2803 32.1495 13.5327 34.5047 13.5327C35.4019 13.5327 36.3364 13.4205 37.3084 13.1962V15.5514Z" fill="black"/>
<path d="M38.7103 12.2205C38.7103 9.88033 40.415 8.71023 43.8243 8.71023C44.6243 8.71023 45.4243 8.785 46.2243 8.93453V8.04855C46.2243 6.99435 45.4654 6.46724 43.9477 6.46724C42.6617 6.46724 41.2336 6.65416 39.6636 7.02799V4.67285C41.2336 4.29902 42.6617 4.1121 43.9477 4.1121C47.4467 4.1121 49.1963 5.40556 49.1963 7.99248V15.8878H47.4692L46.415 14.8336C45.3907 15.5364 44.2617 15.8878 43.028 15.8878C40.1495 15.8878 38.7103 14.6654 38.7103 12.2205ZM46.2243 10.9532C45.4766 10.8037 44.6766 10.7289 43.8243 10.7289C42.3963 10.7289 41.6822 11.2149 41.6822 12.1869C41.6822 13.2336 42.2804 13.757 43.4766 13.757C44.4636 13.757 45.3794 13.4504 46.2243 12.8373V10.9532Z" fill="black"/>
<path d="M52.0112 15.3271V12.8598C53.3196 13.3831 54.8299 13.6448 56.5421 13.6448C57.8206 13.6448 58.4598 13.2336 58.4598 12.4112C58.4598 11.6261 58.0299 11.2336 57.1701 11.2336H55.0393C52.6467 11.2336 51.4505 10.056 51.4505 7.70089C51.4505 5.2336 53.1963 3.99995 56.6878 3.99995C58.1682 3.99995 59.5626 4.22425 60.871 4.67285V7.14014C59.5626 6.61678 58.1421 6.35509 56.6093 6.35509C55.0019 6.35509 54.1981 6.76631 54.1981 7.58874C54.1981 8.37379 54.6654 8.76631 55.6 8.76631H57.5065C60.1234 8.76631 61.4318 9.94388 61.4318 12.299C61.4318 14.7663 59.7645 16 56.4299 16C54.7925 16 53.3196 15.7757 52.0112 15.3271Z" fill="black"/>
<path d="M62.957 12.2205C62.957 9.88033 64.6617 8.71023 68.071 8.71023C68.871 8.71023 69.671 8.785 70.471 8.93453V8.04855C70.471 6.99435 69.7121 6.46724 68.1944 6.46724C66.9084 6.46724 65.4804 6.65416 63.9103 7.02799V4.67285C65.4804 4.29902 66.9084 4.1121 68.1944 4.1121C71.6935 4.1121 73.443 5.40556 73.443 7.99248V15.8878H71.7159L70.6617 14.8336C69.6374 15.5364 68.5084 15.8878 67.2748 15.8878C64.3963 15.8878 62.957 14.6654 62.957 12.2205ZM70.471 10.9532C69.7234 10.8037 68.9234 10.7289 68.071 10.7289C66.643 10.7289 65.929 11.2149 65.929 12.1869C65.929 13.2336 66.5271 13.757 67.7234 13.757C68.7103 13.757 69.6262 13.4504 70.471 12.8373V10.9532Z" fill="black"/>
<path d="M74.8561 4.1121H77.9963L80.8561 12.3439L83.828 4.1121H86.9682L82.1794 15.8878H79.3533L74.8561 4.1121Z" fill="black"/>
<path d="M87.8093 12.2205C87.8093 9.88033 89.514 8.71023 92.9234 8.71023C93.7234 8.71023 94.5234 8.785 95.3234 8.93453V8.04855C95.3234 6.99435 94.5645 6.46724 93.0467 6.46724C91.7607 6.46724 90.3327 6.65416 88.7626 7.02799V4.67285C90.3327 4.29902 91.7607 4.1121 93.0467 4.1121C96.5458 4.1121 98.2953 5.40556 98.2953 7.99248V15.8878H96.5682L95.514 14.8336C94.4897 15.5364 93.3607 15.8878 92.1271 15.8878C89.2486 15.8878 87.8093 14.6654 87.8093 12.2205ZM95.3234 10.9532C94.5757 10.8037 93.7757 10.7289 92.9234 10.7289C91.4953 10.7289 90.7813 11.2149 90.7813 12.1869C90.7813 13.2336 91.3794 13.757 92.5757 13.757C93.5626 13.757 94.4785 13.4504 95.3234 12.8373V10.9532Z" fill="black"/>
<path d="M19.9999 3.14601C19.9999 12.4157 12.4157 19.9999 3.146 19.9999C3.146 10.646 10.7303 3.14601 19.9999 3.14601Z" fill="#FF3355"/>
<path d="M6.44012 3.21586C6.44012 2.07394 5.83636 0.999184 4.83009 0.428222C3.82382 -0.142741 2.6163 -0.142741 1.61003 0.428222C0.603762 0.999184 0 2.07394 0 3.21586C0 4.99592 1.44232 6.44012 3.22006 6.44012C4.9978 6.44012 6.44012 4.99592 6.44012 3.21586Z" fill="url(#paint0_linear)"/>
<defs>
<linearGradient id="paint0_linear" x1="4.75138" y1="1.93159e-07" x2="-1.58143" y2="3.81495" gradientUnits="userSpaceOnUse">
<stop stop-color="#FF1A4B"/>
<stop offset="1" stop-color="#FF335F"/>
</linearGradient>
</defs>
</svg>
