<svg width="24" height="24" viewBox="0 0 24 24" fill="none" xmlns="http://www.w3.org/2000/svg">
<path d="M7.52917 9.3328L9.35544 8V16M14.1628 11.6671C14.658 11.6671 15.1532 11.4871 15.5436 11.1295C15.906 10.7959 16.1132 10.3263 16.1156 9.83353C16.1132 9.34075 15.906 8.87117 15.5436 8.53758C14.7628 7.82081 13.5637 7.82081 12.7821 8.53758C12.7429 8.57358 12.7053 8.61118 12.6693 8.65037C12.0157 9.36635 12.0661 10.4767 12.7821 11.1295C13.1704 11.4844 13.6604 11.6644 14.1519 11.667L14.1628 11.6671ZM14.1628 11.6671L14.1739 11.667C14.755 11.6696 15.3362 11.8808 15.7949 12.3013C16.2228 12.6957 16.4676 13.2509 16.4708 13.8333C16.4676 14.4157 16.2228 14.9708 15.7949 15.3652C14.8717 16.2116 13.4542 16.2116 12.531 15.3652C11.6854 14.5925 11.6254 13.2813 12.3974 12.4349C12.4398 12.3877 12.4846 12.3437 12.531 12.3013C12.9934 11.8782 13.5781 11.6671 14.1628 11.6671ZM12 22C17.523 22 22 17.522 22 12C22 6.477 17.523 2 12 2C6.478 2 2 6.477 2 12C2 17.522 6.478 22 12 22Z" stroke="black" stroke-linecap="round" stroke-linejoin="round"/>
</svg>
