<svg width="13" height="16" viewBox="0 0 13 16" fill="none" xmlns="http://www.w3.org/2000/svg">
<path d="M0.000333402 7.04711C0.000333402 7.04711 -0.041 8.09689 0.796778 8.41067C1.53767 8.68844 1.823 8.13422 1.823 8.13422C1.823 8.13422 1.79678 8.98489 2.68567 9.29955C3.52344 9.59644 3.90789 8.87378 3.90789 8.87378C3.90789 8.87378 4.04433 9.70533 4.92655 9.948C5.66922 10.152 6.22255 9.42933 6.22255 9.42933V14.8551C6.22255 15.2813 6.46344 15.9996 7.35278 16C8.24166 16.0009 8.44478 15.2627 8.44478 14.8551V5.744C8.44478 5.29956 8.88922 5.29956 8.88922 5.744V6.92889C8.88922 8.61422 9.795 9.65911 10.1119 9.94756C10.4288 10.2364 10.8528 10.3827 11.3652 10.2738C12.2346 10.0893 12.0448 9.42044 11.7986 8.85289C11.2043 7.48489 10.7968 5.53556 10.6728 4.61378C10.3212 2.01067 8.091 0.00266767 5.391 1.00525e-06C2.44611 -0.00177677 0.00255562 2.35467 0.000333402 5.29956V7.04711Z" fill="#AF7E57"/>
</svg>
