<svg width="24" height="24" viewBox="0 0 24 24" fill="none" xmlns="http://www.w3.org/2000/svg">
<path d="M8.39332 14.3683V8.36834L11.9933 14.3683V8.36834M3.23175 9.59257V6.28732L4.16322 4.6835L6.45667 4L8.8105 5.49396L13.3214 5.81581L16.7815 4.86854L18.1584 5.37304L19.9739 4.2807L20.9071 5.37304L21.1012 6.5682L21.8221 6.85371L21.2914 8.6179L20.2703 9.10591L17.539 15.1484L15.7853 16.571L14.6963 15.7908L12.1346 17.6496L11.7331 19.3112L11.0844 19.9031L7.72711 20.2725L6.32274 19.4039L5.07492 16.8244L2.25474 16.571L2 12.4349L3.23175 9.59257ZM13.1933 10.4683H11.9933H13.1933ZM13.1933 12.2683H11.9933H13.1933ZM8.39332 10.4683H7.19332H8.39332ZM8.39332 12.2683H7.19332H8.39332Z" stroke="black" stroke-linecap="round" stroke-linejoin="round"/>
</svg>
